<svg width="40" height="40" viewBox="0 0 40 40" fill="none" xmlns="http://www.w3.org/2000/svg">
<path d="M30.2051 13.5499C26.615 7.99982 19.2852 6.3498 13.6009 9.79983C8.06614 13.2499 6.27108 20.7499 9.86119 26.3L10.1604 26.75L8.96366 31.25L13.4513 30.05L13.9001 30.35C15.8447 31.4 17.9389 32 20.0332 32C22.277 32 24.5208 31.4 26.4654 30.2C32.0002 26.6 33.6456 19.2499 30.2051 13.5499V13.5499ZM27.0638 25.0999C26.4654 26 25.7175 26.6 24.6704 26.75C24.072 26.75 23.3241 27.05 20.3323 25.85C17.7893 24.6499 15.6951 22.6999 14.1992 20.4499C13.3017 19.3999 12.8529 18.0499 12.7034 16.6999C12.7034 15.4999 13.1521 14.4499 13.9001 13.6999C14.1992 13.3999 14.4984 13.2499 14.7976 13.2499H15.5455C15.8447 13.2499 16.1439 13.2499 16.2935 13.8499C16.5926 14.5999 17.3406 16.3999 17.3406 16.5499C17.4902 16.6999 17.4902 16.9999 17.3406 17.1499C17.4902 17.4499 17.3406 17.7499 17.191 17.8999C17.0414 18.0499 16.8918 18.3499 16.7422 18.4999C16.4431 18.6499 16.2935 18.9499 16.4431 19.2499C17.0414 20.1499 17.7893 21.0499 18.5373 21.7999C19.4348 22.5499 20.3323 23.1499 21.3795 23.5999C21.6786 23.7499 21.9778 23.7499 22.1274 23.4499C22.277 23.1499 23.0249 22.3999 23.3241 22.0999C23.6233 21.7999 23.7729 21.7999 24.072 21.9499L26.4654 23.1499C26.7646 23.2999 27.0638 23.4499 27.2134 23.5999C27.363 24.0499 27.363 24.6499 27.0638 25.0999V25.0999Z" fill="#4F4F4F"/>
</svg>
