<svg width="206" height="198" viewBox="0 0 206 198" fill="none" xmlns="http://www.w3.org/2000/svg">
<path d="M85.297 18.4216C81.3471 21.2178 77.6045 24.2608 74.0704 27.5916C74.0289 27.6327 73.9873 27.6738 73.9457 27.7149C71.9081 29.6476 69.9128 31.7036 68.0415 33.8008C67.9168 33.9241 67.792 34.0886 67.6673 34.2531C66.5865 35.4456 65.5882 36.6793 64.5489 37.954C64.3409 38.2007 64.1747 38.4474 63.9668 38.653C62.3452 40.7091 60.8483 42.8062 59.393 44.9857C59.1019 45.4379 58.8109 45.8903 58.5198 46.3426C57.9377 47.2473 57.3556 48.193 56.7735 49.1388C56.3993 49.7556 56.0667 50.3313 55.7341 50.9481C55.4014 51.5238 55.0688 52.0995 54.7362 52.7163C54.1956 53.7032 53.6967 54.6901 53.1977 55.677C52.9482 56.1705 52.6988 56.705 52.4493 57.1985C52.075 57.9798 51.7008 58.7611 51.3682 59.5835C51.1603 60.0358 50.9524 60.4882 50.7445 60.9404C50.2456 62.0508 49.8298 63.2021 49.3724 64.3536C49.2061 64.8058 49.0398 65.2579 48.8734 65.7107C48.4161 66.9028 48.0003 68.0956 47.6261 69.3293C47.5013 69.658 47.4181 69.9874 47.335 70.3161C47.0024 71.4263 46.6698 72.4956 46.3787 73.6059C46.2956 73.9346 46.2124 74.2633 46.0876 74.5927C45.755 75.9082 45.4224 77.2244 45.1729 78.54C45.0897 78.9103 45.0066 79.239 44.965 79.6093C44.6739 81.0073 44.4245 82.3644 44.2165 83.8034C44.175 83.9684 44.175 84.0912 44.1334 84.2562C43.9255 85.6127 43.7592 86.9288 43.5929 88.2859C43.5513 88.5737 43.5097 88.8615 43.5097 89.1493C43.385 90.5883 43.2602 92.0279 43.1771 93.4669C43.1771 93.7547 43.1355 94.084 43.1355 94.3718C43.0524 95.8933 43.0107 97.3732 43.0107 98.8947C43.0107 100.416 43.0524 101.938 43.1355 103.418C43.1355 103.706 43.1771 104.035 43.1771 104.323C43.2602 105.762 43.385 107.201 43.5097 108.641C43.5513 108.928 43.5929 109.216 43.5929 109.504C43.7592 110.861 43.9255 112.218 44.1334 113.534C44.175 113.698 44.175 113.822 44.2165 113.986C44.4245 115.385 44.7155 116.783 44.965 118.181C45.0481 118.55 45.0897 118.88 45.1729 119.249C45.464 120.566 45.755 121.923 46.0876 123.197C46.1708 123.526 46.2539 123.855 46.3787 124.184C46.6698 125.294 47.0024 126.405 47.335 127.474C47.4181 127.803 47.5429 128.132 47.6261 128.461C48.0003 129.694 48.4577 130.887 48.8734 132.079C49.0398 132.531 49.2061 132.984 49.3724 133.436C49.8298 134.588 50.2456 135.739 50.7445 136.85C50.9524 137.302 51.1603 137.754 51.3682 138.206C51.7008 138.988 52.075 139.769 52.4493 140.592C52.6988 141.085 52.9482 141.619 53.1977 142.113C53.6967 143.1 54.1956 144.087 54.7362 145.073C55.0688 145.649 55.4014 146.266 55.7341 146.842C56.0667 147.458 56.4409 148.034 56.7735 148.651C57.3556 149.597 57.8962 150.543 58.5198 151.447C58.8109 151.899 59.1019 152.352 59.393 152.804C60.8483 154.984 62.3868 157.081 63.9668 159.137C64.1747 159.383 64.3409 159.63 64.5489 159.836C65.5466 161.07 66.5865 162.303 67.6673 163.536C67.792 163.701 67.9168 163.825 68.0415 163.989C69.9128 166.086 71.9081 168.142 73.9457 170.075C73.9873 170.116 74.0289 170.157 74.0704 170.199C77.563 173.488 81.3471 176.572 85.297 179.368V18.4216Z" fill="#FFE910"/>
<path d="M148.498 0C129.704 0 112.116 5.1401 97.0225 14.0633V18.4221V179.41V183.769C112.116 192.692 129.704 197.832 148.498 197.832H205.337V0H148.498Z" fill="#FF254A"/>
<path d="M32.9482 98.8957C32.9482 61.1465 52.5736 27.7976 82.3446 8.26526C79.0599 3.33078 73.405 0 67.0019 0H19.0191C8.91532 0 0.682617 8.14189 0.682617 18.1342V179.739C0.682617 189.69 8.91532 197.873 19.0191 197.873H67.0019C73.405 197.873 79.1014 194.542 82.3446 189.567C52.6153 169.993 32.9482 136.686 32.9482 98.8957Z" fill="#1CEAE4"/>
</svg>
