<svg width="205" height="31" viewBox="0 0 205 31" fill="none" xmlns="http://www.w3.org/2000/svg">
<path d="M13.2304 2.88049C12.6128 3.31771 12.0276 3.79351 11.475 4.31432C11.4685 4.32075 11.462 4.32718 11.4555 4.33361C11.1369 4.6358 10.8249 4.95729 10.5323 5.2852C10.5128 5.30449 10.4933 5.33021 10.4738 5.35593C10.3048 5.54239 10.1487 5.73529 9.98619 5.93461C9.95368 5.97318 9.92768 6.01176 9.89517 6.04391C9.64162 6.3654 9.40756 6.69331 9.18001 7.03409C9.1345 7.10481 9.08899 7.17554 9.04348 7.24627C8.95246 7.38772 8.86144 7.5356 8.77042 7.68349C8.71191 7.77993 8.6599 7.86995 8.60789 7.96639C8.55588 8.05641 8.50387 8.14643 8.45186 8.24287C8.36734 8.39718 8.28932 8.5515 8.2113 8.70581C8.17229 8.78297 8.13329 8.86655 8.09428 8.94371C8.03576 9.06588 7.97725 9.18804 7.92524 9.31663C7.89273 9.38736 7.86023 9.45809 7.82772 9.52881C7.7497 9.70242 7.68469 9.88245 7.61317 10.0625C7.58717 10.1332 7.56116 10.2039 7.53515 10.2747C7.46364 10.4611 7.39862 10.6476 7.34011 10.8405C7.32061 10.8919 7.3076 10.9434 7.2946 10.9948C7.24259 11.1684 7.19058 11.3356 7.14507 11.5092C7.13207 11.5606 7.11906 11.612 7.09956 11.6635C7.04755 11.8692 6.99554 12.075 6.95653 12.2807C6.94352 12.3386 6.93052 12.39 6.92402 12.4479C6.87851 12.6665 6.8395 12.8787 6.80699 13.1037C6.80049 13.1295 6.80049 13.1487 6.79399 13.1745C6.76149 13.3866 6.73548 13.5924 6.70947 13.8046C6.70297 13.8496 6.69647 13.8946 6.69647 13.9396C6.67697 14.1646 6.65746 14.3897 6.64446 14.6147C6.64446 14.6597 6.63796 14.7112 6.63796 14.7562C6.62496 14.9941 6.61845 15.2255 6.61845 15.4634C6.61845 15.7013 6.62496 15.9392 6.63796 16.1707C6.63796 16.2157 6.64446 16.2672 6.64446 16.3122C6.65746 16.5372 6.67697 16.7622 6.69647 16.9873C6.70297 17.0323 6.70947 17.0773 6.70947 17.1223C6.73548 17.3345 6.76149 17.5467 6.79399 17.7524C6.80049 17.7781 6.80049 17.7974 6.80699 17.8231C6.8395 18.0418 6.88501 18.2604 6.92402 18.479C6.93702 18.5368 6.94352 18.5883 6.95653 18.6461C7.00204 18.8519 7.04755 19.0641 7.09956 19.2634C7.11256 19.3148 7.12556 19.3663 7.14507 19.4177C7.19058 19.5913 7.24259 19.7649 7.2946 19.9321C7.3076 19.9835 7.32711 20.035 7.34011 20.0864C7.39862 20.2793 7.47014 20.4658 7.53515 20.6522C7.56116 20.7229 7.58717 20.7937 7.61317 20.8644C7.68469 21.0444 7.7497 21.2245 7.82772 21.3981C7.86023 21.4688 7.89273 21.5395 7.92524 21.6102C7.97725 21.7324 8.03576 21.8546 8.09428 21.9832C8.13329 22.0603 8.17229 22.1439 8.2113 22.2211C8.28932 22.3754 8.36734 22.5297 8.45186 22.684C8.50387 22.774 8.55588 22.8705 8.60789 22.9605C8.6599 23.0569 8.71841 23.1469 8.77042 23.2434C8.86144 23.3913 8.94596 23.5392 9.04348 23.6806C9.08899 23.7513 9.1345 23.8221 9.18001 23.8928C9.40756 24.2336 9.64812 24.5615 9.89517 24.883C9.92768 24.9215 9.95368 24.9601 9.98619 24.9923C10.1422 25.1852 10.3048 25.3781 10.4738 25.5709C10.4933 25.5967 10.5128 25.616 10.5323 25.6417C10.8249 25.9696 11.1369 26.2911 11.4555 26.5933C11.462 26.5997 11.4685 26.6061 11.475 26.6126C12.0211 27.1269 12.6128 27.6092 13.2304 28.0464V2.88049Z" fill="#FFE910"/>
<path d="M23.1126 0C20.1739 0 17.4238 0.803714 15.0638 2.19896V2.88051V28.0528V28.7344C17.4238 30.1296 20.1739 30.9333 23.1126 30.9333H32V0H23.1126Z" fill="#FF254A"/>
<path d="M5.0451 15.4635C5.0451 9.56098 8.11377 4.34648 12.7688 1.29237C12.2552 0.520806 11.371 0 10.3698 0H2.86713C1.28728 0 0 1.27308 0 2.8355V28.1043C0 29.6603 1.28728 30.9398 2.86713 30.9398H10.3698C11.371 30.9398 12.2617 30.419 12.7688 29.641C8.12028 26.5804 5.0451 21.3724 5.0451 15.4635Z" fill="#1CEAE4"/>
<path d="M43.8248 23V8.80002H47.1048V23H43.8248Z" fill="#4F4F4F"/>
<path d="M59.6809 23H56.4809V17.1C56.4809 16.4067 56.3476 15.9067 56.0809 15.6C55.8276 15.28 55.4876 15.12 55.0609 15.12C54.6209 15.12 54.1743 15.2934 53.7209 15.64C53.2676 15.9867 52.9476 16.4334 52.7609 16.98V23H49.5609V12.5H52.4409V14.26C52.8276 13.6467 53.3743 13.1667 54.0809 12.82C54.7876 12.4734 55.6009 12.3 56.5209 12.3C57.2009 12.3 57.7476 12.4267 58.1609 12.68C58.5876 12.92 58.9076 13.24 59.1209 13.64C59.3476 14.0267 59.4943 14.4534 59.5609 14.92C59.6409 15.3867 59.6809 15.84 59.6809 16.28V23Z" fill="#4F4F4F"/>
<path d="M65.827 23.2C64.9204 23.2 64.0404 23.0534 63.187 22.76C62.347 22.4534 61.6337 22.02 61.047 21.46L62.147 19.44C63.4404 20.3867 64.6337 20.86 65.727 20.86C66.1404 20.86 66.4604 20.7934 66.687 20.66C66.9137 20.5267 67.027 20.32 67.027 20.04C67.027 19.7467 66.8737 19.54 66.567 19.42C66.2604 19.2867 65.807 19.1334 65.207 18.96C64.407 18.6934 63.7404 18.4334 63.207 18.18C62.6737 17.9267 62.2737 17.62 62.007 17.26C61.7404 16.9 61.607 16.42 61.607 15.82C61.607 14.7667 62.0004 13.92 62.787 13.28C63.5737 12.6267 64.6404 12.3 65.987 12.3C66.707 12.3 67.407 12.4134 68.087 12.64C68.7804 12.8667 69.427 13.2467 70.027 13.78L68.787 15.78C68.187 15.3667 67.6537 15.0667 67.187 14.88C66.7204 14.6934 66.267 14.6 65.827 14.6C65.4804 14.6 65.187 14.6667 64.947 14.8C64.707 14.92 64.587 15.1334 64.587 15.44C64.587 15.7334 64.7204 15.9534 64.987 16.1C65.2537 16.2334 65.667 16.38 66.227 16.54C67.0804 16.7934 67.7937 17.0534 68.367 17.32C68.9537 17.5734 69.387 17.8934 69.667 18.28C69.9604 18.6534 70.107 19.1534 70.107 19.78C70.107 20.8467 69.7204 21.6867 68.947 22.3C68.1737 22.9 67.1337 23.2 65.827 23.2Z" fill="#4F4F4F"/>
<path d="M78.4703 22.44C78.0303 22.6267 77.5236 22.8 76.9503 22.96C76.3903 23.12 75.8236 23.2 75.2503 23.2C74.717 23.2 74.2303 23.1134 73.7903 22.94C73.3503 22.7534 72.997 22.4534 72.7303 22.04C72.4636 21.6267 72.3303 21.08 72.3303 20.4V14.92H70.9903V12.5H72.3303V9.16002H75.5303V12.5H77.6703V14.92H75.5303V19.3C75.5303 19.6467 75.617 19.9 75.7903 20.06C75.9636 20.2067 76.1836 20.28 76.4503 20.28C76.6903 20.28 76.937 20.24 77.1903 20.16C77.4436 20.08 77.6636 19.9934 77.8503 19.9L78.4703 22.44Z" fill="#4F4F4F"/>
<path d="M79.7172 11.3V8.40002H82.9172V11.3H79.7172ZM79.7172 23V12.5H82.9172V23H79.7172Z" fill="#4F4F4F"/>
<path d="M91.9078 22.44C91.4678 22.6267 90.9611 22.8 90.3878 22.96C89.8278 23.12 89.2611 23.2 88.6878 23.2C88.1545 23.2 87.6678 23.1134 87.2278 22.94C86.7878 22.7534 86.4345 22.4534 86.1678 22.04C85.9011 21.6267 85.7678 21.08 85.7678 20.4V14.92H84.4278V12.5H85.7678V9.16002H88.9678V12.5H91.1078V14.92H88.9678V19.3C88.9678 19.6467 89.0545 19.9 89.2278 20.06C89.4011 20.2067 89.6211 20.28 89.8878 20.28C90.1278 20.28 90.3745 20.24 90.6278 20.16C90.8811 20.08 91.1011 19.9934 91.2878 19.9L91.9078 22.44Z" fill="#4F4F4F"/>
<path d="M93.0547 19.22V12.5H96.2547V18.52C96.2547 19.84 96.7414 20.5 97.7147 20.5C98.1414 20.5 98.5547 20.3867 98.9547 20.16C99.3547 19.92 99.708 19.5267 100.015 18.98V12.5H103.215V19.44C103.215 19.76 103.261 19.9867 103.355 20.12C103.461 20.2534 103.641 20.3267 103.895 20.34V23C103.588 23.0534 103.328 23.0934 103.115 23.12C102.901 23.1467 102.708 23.16 102.535 23.16C101.388 23.16 100.735 22.7134 100.575 21.82L100.515 21.18C100.035 21.8734 99.4347 22.3867 98.7147 22.72C98.008 23.04 97.2147 23.2 96.3347 23.2C95.268 23.2 94.4547 22.86 93.8947 22.18C93.3347 21.5 93.0547 20.5134 93.0547 19.22Z" fill="#4F4F4F"/>
<path d="M112.435 22.44C111.995 22.6267 111.488 22.8 110.915 22.96C110.355 23.12 109.788 23.2 109.215 23.2C108.682 23.2 108.195 23.1134 107.755 22.94C107.315 22.7534 106.962 22.4534 106.695 22.04C106.428 21.6267 106.295 21.08 106.295 20.4V14.92H104.955V12.5H106.295V9.16002H109.495V12.5H111.635V14.92H109.495V19.3C109.495 19.6467 109.582 19.9 109.755 20.06C109.928 20.2067 110.148 20.28 110.415 20.28C110.655 20.28 110.902 20.24 111.155 20.16C111.408 20.08 111.628 19.9934 111.815 19.9L112.435 22.44Z" fill="#4F4F4F"/>
<path d="M118.565 23.2C117.365 23.2 116.345 22.9467 115.505 22.44C114.678 21.9334 114.045 21.2667 113.605 20.44C113.165 19.6134 112.945 18.72 112.945 17.76C112.945 16.7867 113.165 15.8867 113.605 15.06C114.045 14.2334 114.685 13.5667 115.525 13.06C116.365 12.5534 117.378 12.3 118.565 12.3C119.752 12.3 120.765 12.5534 121.605 13.06C122.445 13.5667 123.085 14.2334 123.525 15.06C123.965 15.8867 124.185 16.7867 124.185 17.76C124.185 18.72 123.965 19.6134 123.525 20.44C123.085 21.2667 122.445 21.9334 121.605 22.44C120.765 22.9467 119.752 23.2 118.565 23.2ZM116.225 17.76C116.225 18.5734 116.445 19.2334 116.885 19.74C117.338 20.2467 117.898 20.5 118.565 20.5C119.218 20.5 119.765 20.2467 120.205 19.74C120.658 19.2334 120.885 18.5734 120.885 17.76C120.885 16.9467 120.658 16.2867 120.205 15.78C119.765 15.2734 119.218 15.02 118.565 15.02C117.898 15.02 117.338 15.2734 116.885 15.78C116.445 16.2867 116.225 16.9467 116.225 17.76Z" fill="#4F4F4F"/>
<path d="M129.88 15.78C129.88 14.9267 130.04 14.08 130.36 13.24C130.68 12.4 131.147 11.64 131.76 10.96C132.373 10.28 133.12 9.74002 134 9.34002C134.88 8.92669 135.88 8.72002 137 8.72002C138.32 8.72002 139.473 9.00669 140.46 9.58002C141.447 10.1534 142.18 10.9 142.66 11.82L140.14 13.58C139.927 13.0867 139.64 12.7 139.28 12.42C138.92 12.1267 138.533 11.9267 138.12 11.82C137.707 11.7 137.307 11.64 136.92 11.64C136.08 11.64 135.387 11.8534 134.84 12.28C134.293 12.7067 133.887 13.2467 133.62 13.9C133.353 14.5534 133.22 15.22 133.22 15.9C133.22 16.6467 133.373 17.3534 133.68 18.02C133.987 18.6734 134.42 19.2 134.98 19.6C135.54 20 136.2 20.2 136.96 20.2C137.36 20.2 137.767 20.14 138.18 20.02C138.593 19.8867 138.973 19.6734 139.32 19.38C139.68 19.0867 139.953 18.7067 140.14 18.24L142.82 19.82C142.54 20.5267 142.08 21.1267 141.44 21.62C140.8 22.1 140.073 22.4734 139.26 22.74C138.46 22.9934 137.667 23.12 136.88 23.12C135.853 23.12 134.913 22.9134 134.06 22.5C133.207 22.0734 132.467 21.5134 131.84 20.82C131.213 20.1134 130.727 19.3267 130.38 18.46C130.047 17.58 129.88 16.6867 129.88 15.78Z" fill="#4F4F4F"/>
<path d="M150.869 15.24C150.096 15.2534 149.396 15.38 148.769 15.62C148.143 15.86 147.689 16.22 147.409 16.7V23H144.209V12.5H147.149V14.62C147.509 13.9134 147.976 13.36 148.549 12.96C149.123 12.56 149.723 12.3534 150.349 12.34C150.616 12.34 150.789 12.3467 150.869 12.36V15.24Z" fill="#4F4F4F"/>
<path d="M152.217 11.3V8.40002H155.417V11.3H152.217ZM152.217 23V12.5H155.417V23H152.217Z" fill="#4F4F4F"/>
<path d="M156.948 19.86C156.948 19.1667 157.141 18.56 157.528 18.04C157.914 17.52 158.448 17.1134 159.128 16.82C159.808 16.5134 160.588 16.36 161.468 16.36C161.894 16.36 162.314 16.4 162.728 16.48C163.141 16.5467 163.501 16.6467 163.808 16.78V16.32C163.808 15.1334 163.108 14.54 161.708 14.54C161.121 14.54 160.568 14.64 160.048 14.84C159.541 15.04 159.001 15.3267 158.428 15.7L157.468 13.66C158.854 12.7534 160.374 12.3 162.028 12.3C163.601 12.3 164.821 12.68 165.688 13.44C166.568 14.1867 167.008 15.2734 167.008 16.7V19.44C167.008 19.76 167.054 19.9867 167.148 20.12C167.254 20.2534 167.434 20.3267 167.688 20.34V23C167.408 23.0534 167.154 23.0934 166.928 23.12C166.701 23.1467 166.501 23.16 166.328 23.16C165.728 23.16 165.268 23.04 164.948 22.8C164.641 22.56 164.448 22.2334 164.368 21.82L164.308 21.36C163.841 21.96 163.281 22.42 162.628 22.74C161.974 23.0467 161.301 23.2 160.608 23.2C159.914 23.2 159.288 23.0534 158.728 22.76C158.181 22.4667 157.748 22.0734 157.428 21.58C157.108 21.0734 156.948 20.5 156.948 19.86ZM163.308 20.26C163.641 19.9934 163.808 19.72 163.808 19.44V18.5C163.528 18.3934 163.221 18.3134 162.888 18.26C162.568 18.1934 162.274 18.16 162.008 18.16C161.408 18.16 160.914 18.2934 160.528 18.56C160.154 18.8267 159.968 19.1667 159.968 19.58C159.968 19.94 160.108 20.2534 160.388 20.52C160.681 20.7734 161.068 20.9 161.548 20.9C161.868 20.9 162.188 20.84 162.508 20.72C162.828 20.6 163.094 20.4467 163.308 20.26Z" fill="#4F4F4F"/>
<path d="M176.029 22.44C175.589 22.6267 175.082 22.8 174.509 22.96C173.949 23.12 173.382 23.2 172.809 23.2C172.276 23.2 171.789 23.1134 171.349 22.94C170.909 22.7534 170.556 22.4534 170.289 22.04C170.022 21.6267 169.889 21.08 169.889 20.4V14.92H168.549V12.5H169.889V9.16002H173.089V12.5H175.229V14.92H173.089V19.3C173.089 19.6467 173.176 19.9 173.349 20.06C173.522 20.2067 173.742 20.28 174.009 20.28C174.249 20.28 174.496 20.24 174.749 20.16C175.002 20.08 175.222 19.9934 175.409 19.9L176.029 22.44Z" fill="#4F4F4F"/>
<path d="M177.276 11.3V8.40002H180.476V11.3H177.276ZM177.276 23V12.5H180.476V23H177.276Z" fill="#4F4F4F"/>
<path d="M185.386 23L181.666 12.5H184.966L187.266 20.12L189.566 12.5H192.566L188.866 23H185.386Z" fill="#4F4F4F"/>
<path d="M198.428 23.2C197.228 23.2 196.208 22.9467 195.368 22.44C194.541 21.9334 193.908 21.2667 193.468 20.44C193.028 19.6134 192.808 18.72 192.808 17.76C192.808 16.7867 193.028 15.8867 193.468 15.06C193.908 14.2334 194.548 13.5667 195.388 13.06C196.228 12.5534 197.241 12.3 198.428 12.3C199.615 12.3 200.628 12.5534 201.468 13.06C202.308 13.5667 202.948 14.2334 203.388 15.06C203.828 15.8867 204.048 16.7867 204.048 17.76C204.048 18.72 203.828 19.6134 203.388 20.44C202.948 21.2667 202.308 21.9334 201.468 22.44C200.628 22.9467 199.615 23.2 198.428 23.2ZM196.088 17.76C196.088 18.5734 196.308 19.2334 196.748 19.74C197.201 20.2467 197.761 20.5 198.428 20.5C199.081 20.5 199.628 20.2467 200.068 19.74C200.521 19.2334 200.748 18.5734 200.748 17.76C200.748 16.9467 200.521 16.2867 200.068 15.78C199.628 15.2734 199.081 15.02 198.428 15.02C197.761 15.02 197.201 15.2734 196.748 15.78C196.308 16.2867 196.088 16.9467 196.088 17.76Z" fill="#4F4F4F"/>
</svg>
